<svg width="35" height="35" viewBox="0 0 35 35" fill="none" xmlns="http://www.w3.org/2000/svg">
<rect width="35" height="35" fill="black"/>
<g clip-path="url(#clip0_105_235)">
<path d="M11.976 2.00801C9.30026 2.17745 6.79311 3.37293 4.97706 5.34531C3.16101 7.31768 2.17614 9.91479 2.22771 12.5954C2.27928 15.276 3.36331 17.8333 5.25388 19.7344C7.14445 21.6354 9.69572 22.7336 12.376 22.8H20.816C21.912 22.8 22.8 21.92 22.8 20.816V12.408C22.8023 11.0055 22.5207 9.61707 21.9721 8.3263C21.4235 7.03554 20.6194 5.86918 19.608 4.89747C18.5967 3.92576 17.3992 3.16881 16.0875 2.67223C14.7759 2.17565 13.3773 1.9497 11.976 2.00801V2.00801Z" fill="url(#paint0_linear_105_235)"/>
<path d="M24.024 33.992C26.6997 33.8226 29.2069 32.6271 31.0229 30.6547C32.839 28.6823 33.8239 26.0852 33.7723 23.4046C33.7207 20.724 32.6367 18.1667 30.7461 16.2656C28.8555 14.3646 26.3043 13.2664 23.624 13.2H15.184C14.6578 13.2 14.1532 13.409 13.7811 13.7811C13.409 14.1532 13.2 14.6578 13.2 15.184V23.592C13.1977 24.9945 13.4793 26.383 14.0279 27.6737C14.5765 28.9645 15.3806 30.1308 16.392 31.1026C17.4033 32.0743 18.6008 32.8312 19.9125 33.3278C21.2241 33.8244 22.6227 34.0503 24.024 33.992V33.992Z" fill="#0070F3"/>
<path d="M22.8 13.2V20.816C22.8 21.3422 22.591 21.8468 22.2189 22.2189C21.8468 22.591 21.3422 22.8 20.816 22.8H13.2V15.184C13.1989 14.6793 13.3903 14.1931 13.7351 13.8245C14.08 13.4559 14.5523 13.2326 15.056 13.2L15.184 13.192H22.8V13.2Z" fill="url(#paint1_linear_105_235)"/>
</g>
<defs>
<linearGradient id="paint0_linear_105_235" x1="12.4" y1="3.36801" x2="12.4" y2="14.2" gradientUnits="userSpaceOnUse">
<stop stop-color="white"/>
<stop offset="0.244792" stop-color="white"/>
<stop offset="0.74" stop-color="white"/>
<stop offset="1" stop-color="white"/>
</linearGradient>
<linearGradient id="paint1_linear_105_235" x1="18" y1="14.576" x2="18" y2="23.792" gradientUnits="userSpaceOnUse">
<stop stop-color="#00299C"/>
<stop offset="1" stop-color="#0073E6"/>
</linearGradient>
<clipPath id="clip0_105_235">
<rect width="32" height="32" fill="white" transform="translate(2 2)"/>
</clipPath>
</defs>
</svg>
